<svg width="20.872665" height="19.000397" viewBox="0 0 20.8727 19.0004" fill="none" xmlns="http://www.w3.org/2000/svg" xmlns:xlink="http://www.w3.org/1999/xlink">
	<desc>
			Created with Pixso.
	</desc>
	<defs/>
	<path id="Union" d="M19.9433 2.40988C20.1757 2.5257 20.3779 2.69427 20.5335 2.90216C20.6906 3.10892 20.7971 3.34955 20.8446 3.60483C20.8921 3.86011 20.8792 4.12296 20.8069 4.37238L19.4421 9.15073C19.2732 9.7334 18.9201 10.2457 18.4357 10.6109C17.9513 10.976 17.3616 11.1745 16.7549 11.1765L7.14177 11.1765L7.38318 12.1424C7.47365 12.5052 7.68297 12.8274 7.9778 13.0574C8.27263 13.2875 8.63597 13.4122 9.00993 13.4118L17.3235 13.4118C17.4717 13.4118 17.6139 13.4706 17.7187 13.5754C17.8235 13.6802 17.8824 13.8224 17.8824 13.9706C17.8824 14.1188 17.8235 14.2609 17.7187 14.3658C17.6139 14.4706 17.4717 14.5294 17.3235 14.5294L9.00993 14.5294C8.38664 14.5302 7.78105 14.3221 7.28976 13.9386C6.79846 13.555 6.44977 13.0179 6.29927 12.4131L3.79329 2.38699C3.70284 2.02414 3.4935 1.70203 3.19867 1.47198C2.90385 1.24191 2.5405 1.11719 2.16653 1.11765L0.558823 1.11765C0.410614 1.11765 0.268478 1.05878 0.163681 0.953979C0.0588684 0.849182 0 0.707031 0 0.558838C0 0.410614 0.0588684 0.268463 0.163681 0.163666C0.268478 0.0588684 0.410614 0 0.558823 0L2.16653 0C2.78983 -0.000701904 3.3954 0.207306 3.88669 0.590881C4.37796 0.974457 4.72667 1.51147 4.87715 2.11633L4.90689 2.23529L19.1948 2.23529C19.4545 2.23431 19.7108 2.2941 19.9433 2.40988ZM7.26453 19.0002C8.19041 19.0002 8.94099 18.2496 8.94099 17.3237C8.94099 16.3979 8.19041 15.6473 7.26453 15.6473C6.33864 15.6473 5.58806 16.3979 5.58806 17.3237C5.58806 18.2496 6.33864 19.0002 7.26453 19.0002ZM18.9994 17.3239C18.9994 18.2498 18.2488 19.0004 17.323 19.0004C16.3971 19.0004 15.6465 18.2498 15.6465 17.3239C15.6465 16.398 16.3971 15.6475 17.323 15.6475C18.2488 15.6475 18.9994 16.398 18.9994 17.3239Z" clip-rule="evenodd" fill="#F72055" fill-opacity="1.000000" fill-rule="evenodd"/>
</svg>
