<svg width="13.000000" height="13.000000" viewBox="0 0 13 13" fill="none" xmlns="http://www.w3.org/2000/svg" xmlns:xlink="http://www.w3.org/1999/xlink">
	<desc>
			Created with Pixso.
	</desc>
	<defs/>
	<path id="Vector" d="M0.26 11.47C-0.09 11.82 -0.09 12.39 0.26 12.73C0.6 13.08 1.17 13.08 1.52 12.73L6.5 7.76L11.47 12.73C11.82 13.08 12.39 13.08 12.73 12.73C13.08 12.39 13.08 11.82 12.73 11.47L7.76 6.49L12.73 1.52C13.08 1.17 13.08 0.6 12.73 0.26C12.39 -0.09 11.82 -0.09 11.47 0.26L6.49 5.23L1.52 0.26C1.17 -0.09 0.6 -0.09 0.26 0.26C-0.09 0.6 -0.09 1.17 0.26 1.52L5.23 6.5L0.26 11.47Z" fill="#777777" fill-opacity="1.000000" fill-rule="evenodd"/>
</svg>
