<svg width="34.000000" height="34.000000" viewBox="0 0 34 34" fill="none" xmlns="http://www.w3.org/2000/svg" xmlns:xlink="http://www.w3.org/1999/xlink">
	<desc>
			Created with Pixso.
	</desc>
	<defs>
		<clipPath id="clip7155_5958">
			<rect id="Delete" width="34.000000" height="34.000000" fill="white" fill-opacity="0"/>
		</clipPath>
	</defs>
	<g clip-path="url(#clip7155_5958)">
		<path id="Vector" d="M24.5 12.48C21.72 12.2 18.93 12.06 16.15 12.06C14.5 12.06 12.85 12.14 11.2 12.31L9.5 12.48" stroke="#292D32" stroke-opacity="1.000000" stroke-width="1.500000" stroke-linejoin="round" stroke-linecap="round"/>
		<path id="Vector" d="M14.08 11.64L14.26 10.55C14.39 9.75 14.49 9.16 15.9 9.16L18.09 9.16C19.49 9.16 19.6 9.79 19.73 10.55L19.91 11.64" stroke="#292D32" stroke-opacity="1.000000" stroke-width="1.500000" stroke-linejoin="round" stroke-linecap="round"/>
		<path id="Vector" d="M22.7 15.11L22.16 23.5C22.07 24.81 22 25.83 19.67 25.83L14.32 25.83C12 25.83 11.92 24.81 11.83 23.5L11.29 15.11" stroke="#292D32" stroke-opacity="1.000000" stroke-width="1.500000" stroke-linejoin="round" stroke-linecap="round"/>
		<path id="Vector" d="M15.6 21.25L18.38 21.25" stroke="#292D32" stroke-opacity="1.000000" stroke-width="1.500000" stroke-linejoin="round" stroke-linecap="round"/>
		<path id="Vector" d="M14.91 17.91L19.08 17.91" stroke="#292D32" stroke-opacity="1.000000" stroke-width="1.500000" stroke-linejoin="round" stroke-linecap="round"/>
	</g>
</svg>
