<svg width="17.500229" height="16.499969" viewBox="0 0 17.5002 16.5" fill="none" xmlns="http://www.w3.org/2000/svg" xmlns:xlink="http://www.w3.org/1999/xlink">
	<desc>
			Created with Pixso.
	</desc>
	<defs/>
	<path id="primary" d="M15.47 2.09C16.29 2.96 16.75 4.13 16.75 5.34C16.75 6.56 16.29 7.73 15.47 8.59L8.74 15.75L2.01 8.59C1.41 7.95 1 7.13 0.83 6.24C0.66 5.36 0.75 4.44 1.07 3.6C1.4 2.76 1.95 2.04 2.66 1.54C3.38 1.03 4.21 0.75 5.07 0.74C6.22 0.75 7.32 1.24 8.13 2.09C8.37 2.34 8.57 2.62 8.74 2.92C8.91 2.62 9.12 2.34 9.36 2.09C9.76 1.67 10.23 1.33 10.76 1.1C11.28 0.86 11.85 0.75 12.41 0.75C12.98 0.75 13.55 0.86 14.07 1.1C14.6 1.33 15.07 1.67 15.47 2.09Z" fill="#AAAAAA" fill-opacity="1.000000" fill-rule="nonzero"/>
	<path id="primary" d="M16.75 5.34C16.75 6.56 16.29 7.73 15.47 8.59L8.74 15.75L2.01 8.59C1.41 7.95 1 7.13 0.83 6.24C0.66 5.36 0.75 4.44 1.07 3.6C1.4 2.76 1.95 2.04 2.66 1.54C3.38 1.03 4.21 0.75 5.07 0.74C6.22 0.75 7.32 1.24 8.13 2.09C8.37 2.34 8.57 2.62 8.74 2.92C8.91 2.62 9.12 2.34 9.36 2.09C9.76 1.67 10.23 1.33 10.76 1.1C11.28 0.86 11.85 0.75 12.41 0.75C12.98 0.75 13.55 0.86 14.07 1.1C14.6 1.33 15.07 1.67 15.47 2.09C16.29 2.96 16.75 4.13 16.75 5.34Z" stroke="#AAAAAA" stroke-opacity="1.000000" stroke-width="1.500000" stroke-linejoin="round"/>
</svg>
