<svg width="25.000000" height="25.000000" viewBox="0 0 25 25" fill="none" xmlns="http://www.w3.org/2000/svg" xmlns:xlink="http://www.w3.org/1999/xlink">
	<desc>
			Created with Pixso.
	</desc>
	<defs>
		<clipPath id="clip4_625">
			<rect id="Frame 42054" width="25.000000" height="25.000000" fill="white" fill-opacity="0"/>
		</clipPath>
	</defs>
	<rect id="Frame 42054" width="25.000000" height="25.000000" fill="#FFFFFF" fill-opacity="0"/>
	<g clip-path="url(#clip4_625)">
		<path id="Vector" d="M11.87 11.75L11.87 21.33L9 21.33C5.97 21.33 4.16 19.52 4.16 16.49L4.16 11.75L11.87 11.75Z" fill="#AAAAAA" fill-opacity="1.000000" fill-rule="nonzero"/>
		<path id="Vector" d="M20.83 11.75L20.83 16.49C20.83 19.52 19.02 21.33 15.99 21.33L13.12 21.33L13.12 11.75L20.83 11.75Z" fill="#AAAAAA" fill-opacity="1.000000" fill-rule="nonzero"/>
		<path id="Vector" d="M20.83 9.5L20.83 10.5L4.16 10.5L4.16 9.5C4.16 6.47 5.97 4.66 9 4.66L15.99 4.66C19.02 4.66 20.83 6.47 20.83 9.5Z" fill="#AAAAAA" fill-opacity="1.000000" fill-rule="nonzero"/>
	</g>
</svg>
