<svg width="21.000000" height="17.000000" viewBox="0 0 21 17" fill="none" xmlns="http://www.w3.org/2000/svg" xmlns:xlink="http://www.w3.org/1999/xlink">
	<desc>
			Created with Pixso.
	</desc>
	<defs/>
	<path id="Vector" d="M10.17 5.33L0 5.33L0 4.11L4.47 4.11L4.47 1.4L5.93 0L6.82 0.86L5.74 1.91L5.74 4.11L10.17 4.11L10.17 5.33ZM7.69 15.73C6.14 14.22 5.23 12.22 5.12 10.1L5.12 9.02L9.19 9.02L9.51 5.95L0.74 5.95L1.91 17L7.86 17L7.85 15.84C7.83 15.82 7.71 15.75 7.69 15.73L7.69 15.73ZM13.36 9.63L5.75 9.63L5.75 10.06C5.87 12.25 6.91 14.3 8.63 15.73L8.6 15.73L8.62 16.99L18.14 16.99L18.12 15.73L18.12 15.73C19.84 14.3 20.88 12.25 21 10.06L21 9.63L13.36 9.63ZM20.14 6.22C20.29 6.08 20.37 5.89 20.36 5.69C20.36 5.49 20.27 5.31 20.11 5.17C19.96 5.04 19.76 4.98 19.55 4.99C19.35 5.01 19.16 5.11 19.03 5.26L15.92 9.02L17.8 9.02L20.14 6.22Z" fill="#1D1D1D" fill-opacity="1.000000" fill-rule="nonzero"/>
</svg>
