<svg width="20.000000" height="20.000000" viewBox="0 0 20 20" fill="none" xmlns="http://www.w3.org/2000/svg" xmlns:xlink="http://www.w3.org/1999/xlink">
	<desc>
			Created with Pixso.
	</desc>
	<defs>
		<clipPath id="clip7154_5750">
			<rect id="Cosmetic" width="20.000000" height="20.000000" fill="white" fill-opacity="0"/>
		</clipPath>
	</defs>
	<rect id="Cosmetic" width="20.000000" height="20.000000" fill="#FFFFFF" fill-opacity="0"/>
	<g clip-path="url(#clip7154_5750)">
		<path id="Union" d="M5.08542 1.55127L9.15504 1.55127C9.39412 1.55127 9.58806 1.36397 9.58806 1.13307C9.58806 0.902023 9.39412 0.714722 9.15504 0.714722L5.08542 0.714859C4.84634 0.714859 4.6524 0.901886 4.6524 1.13321C4.65256 1.36397 4.84648 1.55127 5.08542 1.55127ZM6.27922 2.98969L6.27922 1.55177L7.20915 1.55177L7.20915 2.98969L7.25905 2.98969C7.75993 2.98969 8.16632 3.39925 8.16632 3.90407L8.16632 5.06749C9.98093 5.14522 11.4282 6.64507 11.4282 8.48413L11.4284 16.7583C11.4284 17.5535 10.7857 18.1982 9.99261 18.1982L3.57838 18.1982C2.78548 18.1982 2.14264 17.5535 2.14264 16.7583L2.14264 8.48413C2.14264 6.67316 3.54639 5.19106 5.32205 5.07217L5.32205 3.90407C5.32205 3.39925 5.72813 2.98969 6.22932 2.98969L6.27922 2.98969ZM9.78467 12.9963C9.95113 12.9963 10.086 12.8613 10.086 12.6943L10.086 8.76718C10.086 8.60025 9.95113 8.46497 9.78467 8.46497L3.79657 8.46497C3.63011 8.46497 3.4955 8.60025 3.4955 8.76718L3.4955 12.6943C3.4955 12.8613 3.63011 12.9963 3.79657 12.9963L9.78467 12.9963Z" clip-rule="evenodd" fill="#1D1D1D" fill-opacity="1.000000" fill-rule="evenodd"/>
		<path id="Union" d="M17.9947 4.28528L11.8284 4.28528C11.6209 4.28528 11.4431 4.46312 11.4431 4.67064L11.4431 5.2784L18.3949 5.2784L18.3949 4.67064C18.3949 4.46313 18.217 4.28528 17.9947 4.28528ZM16.8535 16.252L18.3803 5.46106L11.4284 5.46106L12.97 16.252L16.8535 16.252ZM13.4442 17.7847C13.1922 17.7847 12.9847 17.5772 12.9847 17.3252L12.9847 16.4358L16.8237 16.4358L16.8237 17.3252C16.8237 17.5772 16.6162 17.7847 16.3642 17.7847L13.4442 17.7847Z" clip-rule="evenodd" fill="#1D1D1D" fill-opacity="1.000000" fill-rule="evenodd"/>
	</g>
</svg>
