<svg width="13.222412" height="13.222229" viewBox="0 0 13.2224 13.2222" fill="none" xmlns="http://www.w3.org/2000/svg" xmlns:xlink="http://www.w3.org/1999/xlink">
	<desc>
			Created with Pixso.
	</desc>
	<defs/>
	<path id="Vector 11 (Stroke)" d="M6.61 0C7.06 0 7.43 0.36 7.43 0.82L7.43 12.4C7.43 12.85 7.06 13.22 6.61 13.22C6.15 13.22 5.79 12.85 5.79 12.4L5.79 0.82C5.79 0.36 6.15 0 6.61 0Z" fill="#1D1D1D" fill-opacity="1.000000" fill-rule="evenodd"/>
	<path id="Vector 12 (Stroke)" d="M0 6.61C0 6.15 0.36 5.79 0.82 5.79L12.4 5.79C12.85 5.79 13.22 6.15 13.22 6.61C13.22 7.06 12.85 7.43 12.4 7.43L0.82 7.43C0.36 7.43 0 7.06 0 6.61Z" fill="#1D1D1D" fill-opacity="1.000000" fill-rule="evenodd"/>
</svg>
