<svg width="48.387096" height="29.032257" viewBox="0 0 48.3871 29.0323" fill="none" xmlns="http://www.w3.org/2000/svg" xmlns:xlink="http://www.w3.org/1999/xlink">
	<desc>
			Created with Pixso.
	</desc>
	<defs>
		<clipPath id="clip4_631">
			<rect id="Frame 2608710" width="48.387096" height="29.032259" fill="white" fill-opacity="0"/>
		</clipPath>
	</defs>
	<g clip-path="url(#clip4_631)">
		<path id="Vector" d="M19.18 3.72L17.08 3.72C14.67 3.72 13.4 4.99 13.4 7.4L13.4 9.49C13.4 11.9 14.67 13.17 17.07 13.17L19.17 13.17C21.58 13.17 22.85 11.9 22.85 9.49L22.85 7.4C22.86 4.99 21.59 3.72 19.18 3.72Z" fill="#FFFFFF" fill-opacity="1.000000" fill-rule="nonzero"/>
		<path id="Vector" d="M31.8 3.72L29.71 3.72C27.3 3.72 26.03 4.99 26.03 7.4L26.03 9.49C26.03 11.9 27.3 13.17 29.71 13.17L31.8 13.17C34.21 13.17 35.48 11.9 35.48 9.49L35.48 7.4C35.48 4.99 34.21 3.72 31.8 3.72Z" fill="#FFFFFF" fill-opacity="1.000000" fill-rule="nonzero"/>
		<path id="Vector" d="M31.8 16.34L29.71 16.34C27.3 16.34 26.03 17.61 26.03 20.02L26.03 22.12C26.03 24.52 27.3 25.79 29.71 25.79L31.8 25.79C34.21 25.79 35.48 24.52 35.48 22.12L35.48 20.02C35.48 17.61 34.21 16.34 31.8 16.34Z" fill="#FFFFFF" fill-opacity="1.000000" fill-rule="nonzero"/>
		<path id="Vector" d="M19.18 16.34L17.08 16.34C14.67 16.34 13.4 17.61 13.4 20.02L13.4 22.12C13.4 24.53 14.67 25.8 17.07 25.8L19.17 25.8C21.58 25.8 22.85 24.53 22.85 22.13L22.85 20.03C22.86 17.61 21.59 16.34 19.18 16.34Z" fill="#FFFFFF" fill-opacity="1.000000" fill-rule="nonzero"/>
		<g opacity="0.000000"/>
	</g>
</svg>
