<svg width="36.000000" height="68.000000" viewBox="0 0 36 68" fill="none" xmlns="http://www.w3.org/2000/svg" xmlns:xlink="http://www.w3.org/1999/xlink">
	<desc>
			Created with Pixso.
	</desc>
	<defs>
		<clipPath id="clip7154_5718">
			<rect id="Frame" rx="5.250000" width="34.500000" height="66.500000" transform="translate(0.750000 0.750000)" fill="white" fill-opacity="0"/>
		</clipPath>
	</defs>
	<rect id="Frame" rx="5.250000" width="34.500000" height="66.500000" transform="translate(0.750000 0.750000)" fill="#FFFFFF" fill-opacity="0"/>
	<g clip-path="url(#clip7154_5718)">
		<path id="primary" d="M8 28.5L8 25.12C8 24.82 8.11 24.54 8.32 24.32C8.54 24.11 8.82 24 9.12 24L12.5 24" stroke="#FFFFFF" stroke-opacity="1.000000" stroke-width="1.500000" stroke-linejoin="round" stroke-linecap="round"/>
		<path id="primary" d="M28.25 28.5L28.25 25.12C28.25 24.82 28.13 24.54 27.92 24.32C27.7 24.11 27.42 24 27.12 24L23.75 24" stroke="#FFFFFF" stroke-opacity="1.000000" stroke-width="1.500000" stroke-linejoin="round" stroke-linecap="round"/>
		<path id="primary" d="M8 39.75L8 43.12C8 43.42 8.11 43.7 8.32 43.92C8.54 44.13 8.82 44.25 9.12 44.25L12.5 44.25" stroke="#FFFFFF" stroke-opacity="1.000000" stroke-width="1.500000" stroke-linejoin="round" stroke-linecap="round"/>
		<path id="primary" d="M28.25 39.75L28.25 43.12C28.25 43.42 28.13 43.7 27.92 43.92C27.7 44.13 27.42 44.25 27.12 44.25L23.75 44.25" stroke="#FFFFFF" stroke-opacity="1.000000" stroke-width="1.500000" stroke-linejoin="round" stroke-linecap="round"/>
		<path id="primary" d="M8 34.12L28.25 34.12" stroke="#FFFFFF" stroke-opacity="1.000000" stroke-width="1.500000" stroke-linejoin="round" stroke-linecap="round"/>
	</g>
	<rect id="Frame" rx="5.250000" width="34.500000" height="66.500000" transform="translate(0.750000 0.750000)" stroke="#FFFFFF" stroke-opacity="1.000000" stroke-width="1.500000"/>
</svg>
