<svg width="25.000000" height="25.000000" viewBox="0 0 25 25" fill="none" xmlns="http://www.w3.org/2000/svg" xmlns:xlink="http://www.w3.org/1999/xlink">
	<desc>
			Created with Pixso.
	</desc>
	<defs>
		<clipPath id="clip4_614">
			<rect id="Frame 42053" width="25.000000" height="25.000000" fill="white" fill-opacity="0"/>
		</clipPath>
	</defs>
	<rect id="Frame 42053" width="25.000000" height="25.000000" fill="#FFFFFF" fill-opacity="0"/>
	<g clip-path="url(#clip4_614)">
		<path id="Vector" d="M12.83 4C10.47 4 8.56 5.91 8.56 8.27C8.56 10.58 10.37 12.46 12.72 12.54C12.8 12.53 12.87 12.53 12.92 12.54C12.94 12.54 12.95 12.54 12.97 12.54C12.98 12.54 12.98 12.54 12.98 12.54C15.29 12.46 17.1 10.58 17.11 8.27C17.11 5.91 15.19 4 12.83 4Z" fill="#AAAAAA" fill-opacity="1.000000" fill-rule="nonzero"/>
		<path id="Vector" d="M17.4 14.93C14.89 13.26 10.8 13.26 8.27 14.93C7.13 15.69 6.5 16.73 6.5 17.84C6.5 18.94 7.13 19.97 8.26 20.73C9.52 21.57 11.18 21.99 12.83 21.99C14.49 21.99 16.14 21.57 17.4 20.73C18.54 19.96 19.17 18.93 19.17 17.82C19.16 16.71 18.54 15.69 17.4 14.93Z" fill="#AAAAAA" fill-opacity="1.000000" fill-rule="nonzero"/>
	</g>
</svg>
